<?xml version="1.0" encoding="iso-8859-1"?>
<!-- Uploaded to: SVG Repo, www.svgrepo.com, Generator: SVG Repo Mixer Tools -->
<svg height="800px" width="800px" version="1.1" id="Capa_1" xmlns="http://www.w3.org/2000/svg" xmlns:xlink="http://www.w3.org/1999/xlink" 
	 viewBox="0 0 65.328 65.328" xml:space="preserve">
<g>
	<path style="fill:#010002;" d="M64.147,29.328l-7.188-4.313l7.206-4.407c0.719-0.438,1.159-1.219,1.163-2.063
		c0.004-0.843-0.428-1.627-1.143-2.074L44.836,4.379c-0.777-0.483-1.758-0.492-2.541-0.022l-9.632,5.78l-9.632-5.78
		c-0.784-0.47-1.765-0.461-2.541,0.022L1.143,16.471C0.428,16.918-0.004,17.702,0,18.545c0.004,0.844,0.444,1.624,1.163,2.063
		l7.206,4.407l-7.188,4.313C0.452,29.766,0.004,30.553,0,31.402c-0.004,0.852,0.437,1.643,1.163,2.086l9.408,5.754v6.92
		c0,0.825,0.418,1.595,1.111,2.043l19.661,12.722c0.026,0.018,0.058,0.022,0.084,0.038s0.047,0.041,0.075,0.056
		c0.101,0.056,0.21,0.084,0.316,0.123c0.07,0.027,0.135,0.062,0.205,0.081c0.211,0.057,0.425,0.092,0.641,0.092
		s0.43-0.035,0.641-0.092c0.07-0.02,0.135-0.054,0.205-0.081c0.106-0.039,0.215-0.067,0.316-0.123
		c0.028-0.015,0.048-0.04,0.075-0.056s0.059-0.021,0.084-0.038l19.661-12.722c0.692-0.448,1.11-1.218,1.11-2.043v-6.92l9.408-5.754
		c0.726-0.443,1.167-1.234,1.163-2.086C65.323,30.553,64.876,29.766,64.147,29.328z M43.521,9.294l14.749,9.218l-5.863,3.585
		l-8.739-5.243l-6.311-3.86L43.521,9.294z M7.058,18.512l14.749-9.218l6.164,3.699l-6.311,3.86l-8.739,5.243L7.058,18.512z
		 M10.571,33.542l-3.445-2.107l3.445-2.067l2.349-1.445l2.516,1.301l11.02,6.74l1.583,0.99l-5.945,3.635l-6.658-4.072L10.571,33.542
		z M30.231,54.414l-14.796-9.575v-2.621l5.389,3.297c0.39,0.239,0.829,0.358,1.269,0.358c0.439,0,0.88-0.119,1.27-0.358l6.869-4.201
		v13.1H30.231z M32.664,34.059l-3.596-2.2L17.88,24.868l6.243-3.819l8.542-5.126l8.542,5.126l6.243,3.819l-11.188,6.991
		L32.664,34.059z M49.892,44.839l-14.796,9.575v-13.1l6.87,4.201c0.389,0.239,0.83,0.358,1.269,0.358
		c0.44,0,0.879-0.119,1.269-0.358l5.389-3.297L49.892,44.839L49.892,44.839z M54.756,33.542l-4.864,2.974l-6.658,4.072l-5.945-3.635
		l1.583-0.99l11.02-6.74l2.277-1.301l2.587,1.445l3.445,2.067L54.756,33.542z"/>
</g>
</svg>